<svg id="svg" version="1.1" width="1000" height="1000" xmlns="http://www.w3.org/2000/svg" xmlns:xlink="http://www.w3.org/1999/xlink" style="display: block;"><g id="svgg"><path id="path0" d="" stroke="none" fill="#ffffff" fill-rule="evenodd"></path><path id="path1" d="M25.400 1.484 C 15.090 2.924,5.835 11.087,2.300 21.859 L 1.400 24.600 1.400 200.000 C 1.400 370.012,1.423 375.474,2.146 377.800 C 5.177 387.557,12.381 394.758,22.200 397.845 C 25.964 399.029,374.036 399.029,377.800 397.845 C 387.712 394.729,394.729 387.712,397.845 377.800 C 399.029 374.036,399.029 25.964,397.845 22.200 C 394.797 12.507,388.045 5.637,378.233 2.245 L 375.800 1.404 201.200 1.360 C 105.170 1.336,26.060 1.392,25.400 1.484 M307.881 90.784 C 310.504 92.384,310.400 91.114,310.400 121.433 C 310.400 148.629,310.392 148.919,309.561 150.262 C 307.900 152.951,310.307 152.800,269.020 152.800 L 231.600 152.800 231.600 200.200 L 231.600 247.600 268.592 247.600 C 309.916 247.600,307.905 247.466,309.692 250.340 L 310.600 251.800 310.600 279.400 L 310.600 307.000 309.641 308.345 C 307.751 310.994,316.398 310.800,200.200 310.800 C 84.002 310.800,92.649 310.994,90.759 308.345 L 89.800 307.000 89.800 279.200 L 89.800 251.400 90.695 250.145 C 92.586 247.495,90.884 247.600,131.808 247.600 L 168.800 247.600 168.800 200.200 L 168.800 152.800 131.031 152.800 L 93.261 152.800 91.976 151.719 C 89.531 149.661,89.600 150.540,89.600 121.400 C 89.600 92.260,89.531 93.139,91.976 91.081 L 93.261 90.000 199.931 90.001 C 305.021 90.003,306.619 90.015,307.881 90.784 " stroke="none" fill="#121b41" fill-rule="evenodd"></path><path id="path2" d="M112.900 247.900 C 123.185 247.959,140.015 247.959,150.300 247.900 C 160.585 247.840,152.170 247.792,131.600 247.792 C 111.030 247.792,102.615 247.840,112.900 247.900 M250.100 247.900 C 260.385 247.959,277.215 247.959,287.500 247.900 C 297.785 247.840,289.370 247.792,268.800 247.792 C 248.230 247.792,239.815 247.840,250.100 247.900 M310.589 279.200 C 310.589 293.830,310.639 299.815,310.700 292.500 C 310.761 285.185,310.761 273.215,310.700 265.900 C 310.639 258.585,310.589 264.570,310.589 279.200 " stroke="none" fill="#373c5b" fill-rule="evenodd"></path><path id="path3" d="M114.100 1.100 C 161.345 1.156,238.655 1.156,285.900 1.100 C 333.145 1.044,294.490 0.998,200.000 0.998 C 105.510 0.998,66.855 1.044,114.100 1.100 M0.998 200.000 C 0.998 294.490,1.044 333.145,1.100 285.900 C 1.156 238.655,1.156 161.345,1.100 114.100 C 1.044 66.855,0.998 105.510,0.998 200.000 M398.998 200.000 C 398.998 294.490,399.044 333.145,399.100 285.900 C 399.156 238.655,399.156 161.345,399.100 114.100 C 399.044 66.855,398.998 105.510,398.998 200.000 M89.789 121.400 C 89.789 135.920,89.839 141.802,89.900 134.471 C 89.961 127.140,89.961 115.260,89.900 108.071 C 89.839 100.882,89.789 106.880,89.789 121.400 M89.789 279.400 C 89.789 293.920,89.839 299.802,89.900 292.471 C 89.961 285.140,89.961 273.260,89.900 266.071 C 89.839 258.882,89.789 264.880,89.789 279.400 M114.100 399.100 C 161.345 399.156,238.655 399.156,285.900 399.100 C 333.145 399.044,294.490 398.998,200.000 398.998 C 105.510 398.998,66.855 399.044,114.100 399.100 " stroke="none" fill="#5b5e74" fill-rule="evenodd"></path><path id="path4" d="M170.000 200.400 L 170.000 248.000 200.200 248.000 L 230.400 248.000 230.400 200.400 L 230.400 152.800 200.200 152.800 L 170.000 152.800 170.000 200.400 " stroke="none" fill="#2f5b91" fill-rule="evenodd"></path><path id="path5" d="M93.323 91.604 C 90.941 92.564,91.011 91.742,90.879 119.982 C 90.746 148.528,90.760 148.822,92.403 150.465 L 93.538 151.600 131.169 151.600 L 168.800 151.600 168.800 122.747 C 168.800 94.216,168.809 93.879,169.633 92.547 L 170.465 91.200 132.333 91.225 C 111.282 91.239,93.807 91.409,93.323 91.604 M172.097 91.730 C 169.692 93.065,169.811 91.567,169.682 122.200 C 169.617 137.600,169.670 150.785,169.800 151.500 L 170.036 152.800 200.218 152.800 L 230.400 152.800 230.400 123.360 L 230.400 93.920 229.040 92.560 L 227.680 91.200 200.340 91.214 C 179.186 91.225,172.796 91.342,172.097 91.730 M230.488 92.433 L 231.400 93.667 231.508 122.633 L 231.615 151.600 268.828 151.600 C 309.245 151.600,307.686 151.686,308.722 149.411 C 309.078 148.631,309.200 141.394,309.200 121.141 L 309.200 93.920 307.840 92.560 L 306.480 91.200 268.028 91.200 L 229.576 91.200 230.488 92.433 M169.852 248.900 C 169.418 250.519,169.573 304.887,170.016 306.482 C 170.938 309.803,168.996 309.600,199.835 309.600 C 220.170 309.600,227.431 309.478,228.211 309.122 C 230.458 308.099,230.400 308.939,230.400 277.220 L 230.400 248.000 200.247 248.000 L 170.093 248.000 169.852 248.900 M92.496 250.100 C 90.825 251.884,90.800 252.314,90.802 279.126 C 90.805 307.255,90.819 307.452,92.959 308.775 C 94.284 309.593,94.603 309.600,132.341 309.600 L 170.388 309.600 169.596 308.300 C 168.825 307.036,168.803 306.205,168.801 278.100 L 168.800 249.200 131.070 249.200 L 93.339 249.200 92.496 250.100 M231.508 278.368 L 231.400 307.536 230.430 308.568 L 229.461 309.600 267.769 309.600 C 309.432 309.600,307.333 309.710,308.833 307.453 C 309.567 306.349,309.922 254.753,309.212 252.321 C 308.226 248.941,311.556 249.200,269.154 249.200 L 231.615 249.200 231.508 278.368 " stroke="none" fill="#468fcc" fill-rule="evenodd"></path><path id="path6" d="M132.294 91.197 L 170.387 91.400 169.596 92.600 C 168.827 93.767,168.805 94.583,168.803 122.698 L 168.800 151.596 131.900 151.703 L 95.000 151.810 132.290 151.805 C 164.297 151.801,169.596 151.881,169.690 152.372 C 169.750 152.686,169.800 139.726,169.800 123.572 C 169.800 91.341,169.711 92.548,172.136 91.745 C 174.384 91.000,168.652 90.883,132.600 90.937 L 94.200 90.994 132.294 91.197 M186.929 91.100 C 194.370 91.161,206.430 91.161,213.729 91.100 C 221.028 91.039,214.940 90.989,200.200 90.989 C 185.460 90.989,179.488 91.039,186.929 91.100 M228.560 91.074 C 227.773 91.229,227.805 91.325,229.060 92.580 L 230.400 93.920 230.446 123.460 C 230.472 139.707,230.566 152.730,230.656 152.400 C 230.800 151.872,235.300 151.801,268.110 151.805 L 305.400 151.810 268.508 151.703 L 231.615 151.596 231.508 122.631 L 231.400 93.667 230.490 92.435 L 229.579 91.204 267.690 91.100 L 305.800 90.996 267.600 90.952 C 246.590 90.929,229.022 90.983,228.560 91.074 M169.600 248.500 C 169.600 248.896,161.796 248.999,131.900 248.995 L 94.200 248.990 131.500 249.097 L 168.800 249.204 168.801 278.102 C 168.803 310.170,168.757 309.600,171.363 309.600 L 172.338 309.600 171.203 308.465 C 169.555 306.816,169.547 306.650,169.680 275.900 C 169.746 260.555,169.755 248.000,169.700 248.000 C 169.645 248.000,169.600 248.225,169.600 248.500 M230.432 277.200 C 230.367 308.700,230.420 307.898,228.356 309.042 L 227.400 309.572 228.430 309.586 C 229.034 309.594,229.862 309.173,230.430 308.568 L 231.400 307.536 231.508 278.370 L 231.615 249.204 268.908 249.097 L 306.200 248.990 268.510 248.995 C 235.344 248.999,230.800 248.928,230.656 248.400 C 230.566 248.070,230.466 261.030,230.432 277.200 M186.700 309.900 C 194.015 309.961,205.985 309.961,213.300 309.900 C 220.615 309.839,214.630 309.789,200.000 309.789 C 185.370 309.789,179.385 309.839,186.700 309.900 " stroke="none" fill="#86a6c6" fill-rule="evenodd"></path><path id="path7" d="M21.800 0.954 C 11.431 3.854,3.464 11.965,0.822 22.312 L 0.000 25.533 0.000 200.000 L 0.000 374.467 0.822 377.688 C 3.472 388.065,11.518 396.210,22.026 399.153 L 25.051 400.000 200.000 400.000 L 374.949 400.000 377.974 399.153 C 388.407 396.231,396.231 388.407,399.153 377.974 L 400.000 374.949 400.000 200.000 L 400.000 25.051 399.153 22.026 C 396.210 11.518,388.065 3.472,377.688 0.822 L 374.467 0.000 199.733 0.030 L 25.000 0.060 21.800 0.954 M378.600 2.088 C 387.860 5.236,394.983 12.433,397.913 21.600 L 399.000 25.000 399.000 200.000 L 399.000 375.000 397.913 378.400 C 394.946 387.683,387.683 394.946,378.400 397.913 L 375.000 399.000 200.000 399.000 L 25.000 399.000 21.600 397.913 C 12.317 394.946,5.054 387.683,2.087 378.400 L 1.000 375.000 1.000 200.000 L 1.000 25.000 2.088 21.600 C 5.520 10.874,15.162 2.530,25.800 1.080 C 26.460 0.990,105.390 0.935,201.200 0.958 L 375.400 1.000 378.600 2.088 M93.785 90.425 C 93.117 90.620,92.037 91.335,91.385 92.016 L 90.200 93.253 90.200 121.457 L 90.200 149.661 91.694 151.031 C 92.591 151.853,93.630 152.415,94.294 152.438 C 102.612 152.721,169.599 152.509,169.600 152.200 C 169.600 151.936,156.657 151.800,131.569 151.800 L 93.538 151.800 92.169 150.306 L 90.800 148.812 90.800 121.568 C 90.800 91.331,90.679 92.718,93.432 91.412 C 95.267 90.541,304.492 90.493,306.573 91.363 C 309.353 92.525,309.200 90.768,309.200 121.435 C 309.200 148.727,309.189 149.106,308.379 150.136 C 306.878 152.044,306.838 152.046,267.700 151.919 C 236.836 151.819,230.800 151.889,230.800 152.343 C 230.800 152.673,231.047 152.791,231.433 152.643 C 231.781 152.509,248.989 152.400,269.673 152.400 L 307.280 152.400 308.640 151.040 L 310.000 149.680 310.000 121.387 L 310.000 93.094 308.631 91.803 C 307.878 91.093,306.686 90.397,305.981 90.256 C 303.986 89.857,95.166 90.024,93.785 90.425 M92.600 248.795 C 89.887 250.581,90.000 249.247,90.001 279.394 C 90.003 309.736,89.871 308.286,92.762 309.781 C 94.907 310.889,306.100 310.702,307.924 309.590 C 310.496 308.022,310.433 308.837,310.311 278.687 C 310.189 248.627,310.349 250.477,307.722 248.745 C 306.288 247.799,230.800 247.559,230.800 248.500 C 230.800 248.897,238.532 248.978,268.408 248.894 C 309.786 248.777,307.685 248.658,309.001 251.203 C 309.540 252.245,309.603 255.785,309.508 279.829 L 309.400 307.266 308.163 308.371 L 306.926 309.476 253.408 309.699 C 223.973 309.822,175.929 309.822,146.645 309.700 L 93.400 309.477 92.100 308.178 L 90.800 306.880 90.800 279.620 C 90.800 249.692,90.721 250.682,93.199 249.401 C 94.243 248.861,98.857 248.801,131.992 248.894 C 161.868 248.978,169.600 248.897,169.600 248.500 C 169.600 247.516,94.104 247.805,92.600 248.795 " stroke="none" fill="#bdbec0" fill-rule="evenodd"></path><path id="path8" d="M168.898 200.300 L 168.996 247.800 169.196 210.600 L 169.396 173.400 169.601 210.800 L 169.806 248.200 169.903 200.500 C 169.989 158.324,169.931 152.800,169.400 152.800 C 168.869 152.800,168.811 158.301,168.898 200.300 M230.400 200.387 C 230.400 242.523,230.469 247.949,231.000 247.745 C 231.912 247.395,231.912 152.800,231.000 152.800 C 230.470 152.800,230.400 158.354,230.400 200.387 M113.900 310.700 C 124.735 310.759,142.465 310.759,153.300 310.700 C 164.135 310.641,155.270 310.592,133.600 310.592 C 111.930 310.592,103.065 310.641,113.900 310.700 M246.870 310.700 C 257.578 310.759,275.218 310.759,286.070 310.700 C 296.921 310.641,288.160 310.592,266.600 310.592 C 245.040 310.592,236.161 310.641,246.870 310.700 " stroke="none" fill="#797889" fill-rule="evenodd"></path><path id="path9" d="M310.189 121.600 C 310.189 136.450,310.239 142.525,310.300 135.100 C 310.361 127.675,310.361 115.525,310.300 108.100 C 310.239 100.675,310.189 106.750,310.189 121.600 M120.130 152.700 C 129.111 152.760,143.691 152.760,152.530 152.700 C 161.368 152.640,154.020 152.591,136.200 152.591 C 118.380 152.591,111.148 152.640,120.130 152.700 M250.100 152.700 C 260.385 152.759,277.215 152.759,287.500 152.700 C 297.785 152.640,289.370 152.592,268.800 152.592 C 248.230 152.592,239.815 152.640,250.100 152.700 M169.104 210.800 C 169.047 231.260,169.135 248.000,169.300 248.000 C 169.465 248.000,169.600 231.260,169.600 210.800 C 169.600 190.340,169.512 173.600,169.404 173.600 C 169.296 173.600,169.161 190.340,169.104 210.800 M186.529 310.700 C 194.190 310.761,206.610 310.761,214.129 310.700 C 221.648 310.639,215.380 310.589,200.200 310.589 C 185.020 310.589,178.868 310.639,186.529 310.700 " stroke="none" fill="#94949f" fill-rule="evenodd"></path></g></svg>